<svg xmlns="http://www.w3.org/2000/svg" enable-background="new 0 0 64 64" viewBox="0 0 64 64"><path fill="#2b2e63" d="M42.22,24.73c-1.86-1.38-4.29-1.23-6.19,0.28c-0.22-0.18-0.44-0.36-0.67-0.5c-1.8-1.12-4.51-1.12-6.63,1.21
		c-2.13-2.33-4.83-2.33-6.63-1.21c-2.25,1.4-3.56,4.78-1.12,8.91c0.09,0.14,2.25,3.61,7.25,6.65c0.15,0.1,0.33,0.15,0.5,0.15
		c0.18,0,0.35-0.05,0.51-0.15c1.05-0.64,1.96-1.29,2.77-1.94c0.87,0.7,1.78,1.36,2.75,1.95c0.15,0.09,0.33,0.14,0.5,0.14
		c0.18,0,0.35-0.05,0.51-0.14c5-3.05,7.15-6.52,7.25-6.68C45.31,29.52,44.28,26.25,42.22,24.73z M28.74,38.1
		c-4.22-2.71-6.08-5.67-6.09-5.68c-1.77-3-0.99-5.35,0.49-6.26c0.44-0.28,0.96-0.44,1.51-0.44c1.08,0,2.29,0.6,3.28,2.12
		c0.36,0.54,1.26,0.54,1.62,0c1.5-2.29,3.49-2.5,4.79-1.68c1.48,0.91,2.26,3.26,0.5,6.24C34.81,32.43,32.97,35.38,28.74,38.1z
		 M41.37,32.4c-0.02,0.03-1.88,2.99-6.1,5.7c-0.61-0.39-1.19-0.81-1.76-1.25c2-1.86,2.93-3.34,2.99-3.45
		c1.61-2.72,1.57-5.12,0.71-6.84c1.39-1.13,2.89-0.99,3.86-0.27C42.42,27.29,43.03,29.58,41.37,32.4z"/><path fill="#2b2e63" d="M45.19,0H18.82c-2.07,0-3.75,1.68-3.75,3.75v56.5c0,2.07,1.68,3.75,3.75,3.75h26.38
		c2.06,0,3.74-1.68,3.74-3.75V3.75C48.94,1.68,47.26,0,45.19,0z M46.99,60.25c0,1-0.81,1.81-1.8,1.81H18.82
		c-1,0-1.81-0.81-1.81-1.81v-3.86c0.44,0.21,0.93,0.34,1.46,0.34h27.07c0.53,0,1.02-0.13,1.46-0.34V60.25z M46.99,53.33
		c0,0.8-0.65,1.46-1.46,1.46H18.47c-0.81,0-1.46-0.66-1.46-1.46V10.67c0-0.8,0.65-1.46,1.46-1.46h27.07c0.81,0,1.46,0.66,1.46,1.46
		V53.33z M46.99,7.62c-0.44-0.22-0.93-0.35-1.46-0.35H18.47c-0.53,0-1.02,0.13-1.46,0.35V3.75c0-1,0.81-1.81,1.81-1.81h26.38
		c0.99,0,1.8,0.81,1.8,1.81V7.62z"/><path fill="#4ebde5" d="M45.53 56.73H18.47c-.53 0-1.02-.13-1.46-.34v3.86c0 1 .81 1.81 1.81 1.81h26.38c.99 0 1.8-.81 1.8-1.81v-3.86C46.56 56.6 46.06 56.73 45.53 56.73zM32.01 60.85c-.81 0-1.46-.65-1.46-1.46 0-.8.65-1.45 1.46-1.45.8 0 1.45.65 1.45 1.45C33.46 60.2 32.81 60.85 32.01 60.85zM45.19 1.94H18.82c-1 0-1.81.81-1.81 1.81v3.87c.44-.22.93-.35 1.46-.35h27.07c.53 0 1.02.13 1.46.35V3.75C46.99 2.75 46.19 1.94 45.19 1.94zM34.22 5.58h-4.45c-.53 0-.97-.44-.97-.97 0-.54.44-.97.97-.97h4.45c.53 0 .97.43.97.97C35.19 5.14 34.76 5.58 34.22 5.58z"/><path fill="#d7e9f2" d="M45.53,9.21H18.47c-0.81,0-1.46,0.66-1.46,1.46v42.66c0,0.8,0.65,1.46,1.46,1.46h27.07
		c0.81,0,1.46-0.66,1.46-1.46V10.67C46.99,9.87,46.35,9.21,45.53,9.21z M43.03,33.4c-0.1,0.16-2.25,3.63-7.25,6.68
		c-0.16,0.09-0.33,0.14-0.51,0.14c-0.17,0-0.35-0.05-0.5-0.14c-0.97-0.59-1.88-1.25-2.75-1.95c-0.81,0.65-1.72,1.3-2.77,1.94
		c-0.16,0.1-0.33,0.15-0.51,0.15c-0.17,0-0.35-0.05-0.5-0.15c-5-3.04-7.16-6.51-7.25-6.65c-2.44-4.13-1.13-7.51,1.12-8.91
		c1.8-1.12,4.5-1.12,6.63,1.21c2.12-2.33,4.83-2.33,6.63-1.21c0.23,0.14,0.45,0.32,0.67,0.5c1.9-1.51,4.33-1.66,6.19-0.28
		C44.28,26.25,45.31,29.52,43.03,33.4z"/><path fill="#e15e5a" d="M34.83,32.4c-0.02,0.03-1.86,2.98-6.1,5.7c-4.22-2.71-6.08-5.67-6.09-5.68c-1.77-3-0.99-5.35,0.49-6.26
		c0.44-0.28,0.96-0.44,1.51-0.44c1.08,0,2.29,0.6,3.28,2.12c0.36,0.54,1.26,0.54,1.62,0c1.5-2.29,3.49-2.5,4.79-1.68
		C35.81,27.07,36.6,29.42,34.83,32.4z"/><path fill="#f26e61" d="M41.37,32.4c-0.02,0.03-1.88,2.99-6.1,5.7c-0.61-0.39-1.19-0.81-1.76-1.25c2-1.86,2.93-3.34,2.99-3.45
		c1.61-2.72,1.57-5.12,0.71-6.84c1.39-1.13,2.89-0.99,3.86-0.27C42.42,27.29,43.03,29.58,41.37,32.4z"/><path fill="#2b2e63" d="M32.01,57.94c-0.81,0-1.46,0.65-1.46,1.45c0,0.81,0.65,1.46,1.46,1.46c0.8,0,1.45-0.65,1.45-1.46
		C33.46,58.59,32.81,57.94,32.01,57.94z M32.01,59.88c-0.27,0-0.49-0.22-0.49-0.49c0-0.26,0.22-0.48,0.49-0.48
		c0.26,0,0.48,0.22,0.48,0.48C32.49,59.66,32.26,59.88,32.01,59.88z"/><path fill="#e15e5a" d="M32.49,59.39c0,0.27-0.22,0.49-0.48,0.49c-0.27,0-0.49-0.22-0.49-0.49c0-0.26,0.22-0.48,0.49-0.48
		C32.26,58.91,32.49,59.13,32.49,59.39z"/><path fill="#2b2e63" d="M35.19,4.61c0,0.53-0.44,0.97-0.97,0.97h-4.45c-0.53,0-0.97-0.44-0.97-0.97c0-0.54,0.44-0.97,0.97-0.97h4.45
		C34.76,3.64,35.19,4.07,35.19,4.61z"/></svg>